<?xml version="1.0" encoding="UTF-8"?>
<svg id="Layer_1" xmlns="http://www.w3.org/2000/svg" version="1.1" xmlns:xlink="http://www.w3.org/1999/xlink" viewBox="0 0 506 505">
  <!-- Generator: Adobe Illustrator 29.5.0, SVG Export Plug-In . SVG Version: 2.1.0 Build 137)  -->
  <defs>
    <style>
      .st0 {
        mask: url(#mask-1);
      }

      .st1 {
        mask: url(#mask);
      }

      .st2 {
        stroke: #fff;
        stroke-linecap: round;
        stroke-opacity: .8;
        stroke-width: 3px;
      }

      .st2, .st3 {
        fill: none;
      }

      .st4 {
        fill: #1f2937;
      }

      .st5 {
        fill: #c1c4de;
      }

      .st6 {
        clip-path: url(#clippath);
      }
    </style>
    <clipPath id="clippath">
      <rect class="st3" x="0" y="0" width="507.44" height="507.44"/>
    </clipPath>
    <mask id="mask" x="0" y="-98.67" width="544.94" height="606.12" maskUnits="userSpaceOnUse">
      <g id="mask0_45_51">
        <rect class="st5" x="0" y="0" width="507.44" height="507.44" rx="20" ry="20"/>
      </g>
    </mask>
    <mask id="mask-1" x="-138.99" y="126.17" width="544.94" height="606.12" maskUnits="userSpaceOnUse">
      <g id="mask0_45_511" data-name="mask0_45_51">
        <rect class="st5" x="-101.49" y="224.84" width="507.44" height="507.44" rx="20" ry="20" transform="translate(304.46 957.13) rotate(-180)"/>
      </g>
    </mask>
  </defs>
  <g class="st6">
    <rect class="st4" x="0" y="0" width="507.44" height="507.44" rx="20" ry="20"/>
    <g class="st1">
      <g>
        <path class="st2" d="M521.16,61.29c-21.63,51.91-43.17,102.21-72.03,151.42-3.62,6.16-8.02,12.13-11.39,18.37-5.32,9.86-9.05,24.99-7.67,35.64,3.21,24.88,36.71,46.73,61.38,58.45,17.42,8.27,32.6,19.77,51.98,25.04"/>
        <path class="st2" d="M494.47,1.08c-27.75,70.61-66.2,138.12-103.23,205.07-4.64,8.39-10.29,16.5-14.61,24.99-6.83,13.41-11.61,33.99-9.85,48.47,4.12,33.84,47.11,63.56,78.77,79.51,22.24,12.42,39.14,24.14,66.7,34.05"/>
        <path class="st2" d="M484.56-97.17C443.13,3.05,401.85,100.16,346.57,195.19c-6.92,11.9-15.36,23.41-21.81,35.47-10.19,19.04-17.33,48.25-14.7,68.8,6.15,48.03,70.33,90.22,117.6,112.85,33.37,15.97,62.45,38.16,99.58,48.34"/>
      </g>
    </g>
    <g class="st0">
      <g>
        <path class="st2" d="M-137.49,575.05c19.38-5.27,34.56-16.76,51.98-25.04,24.67-11.72,58.17-33.57,61.38-58.45,1.37-10.65-2.35-25.77-7.67-35.64-3.37-6.25-7.77-12.21-11.39-18.37-28.86-49.22-50.4-99.52-72.03-151.42"/>
        <path class="st2" d="M-106.31,618.02c27.57-9.91,44.46-21.63,66.7-34.05,31.66-15.94,74.65-45.67,78.77-79.51,1.76-14.48-3.02-35.06-9.85-48.47-4.32-8.5-9.97-16.61-14.61-24.99-37.03-66.95-75.48-134.46-103.23-205.07"/>
        <path class="st2" d="M-121.29,685.5c37.13-10.17,66.21-32.36,99.58-48.34,47.27-22.63,111.45-64.82,117.6-112.85,2.63-20.55-4.51-49.76-14.7-68.8-6.45-12.06-14.89-23.57-21.81-35.47C4.1,325.01-37.17,227.89-78.61,127.67"/>
      </g>
    </g>
  </g>
</svg>